<svg width="32" height="32" viewBox="0 0 32 32" fill="none" xmlns="http://www.w3.org/2000/svg">
<rect width="32" height="32" rx="8" fill="#0d1117"/>
<path d="M8 24V8h3.2c2.4 0 4.2.6 5.4 1.8s1.8 2.8 1.8 4.8c0 1.2-.3 2.2-.8 3.1s-1.3 1.5-2.3 2c1.2.4 2.1 1.1 2.7 2s.9 2 .9 3.2c0 2.1-.6 3.7-1.9 4.9S13.7 24 11.2 24H8zm3.2-9.6h1.6c.9 0 1.6-.2 2-.7s.6-1.1.6-1.9-.2-1.4-.6-1.9-1.1-.7-2-.7h-1.6v5.2zm0 2.4v4.8h2c1 0 1.8-.3 2.3-.8s.8-1.2.8-2.1-.3-1.6-.8-2.1-1.3-.8-2.3-.8h-2z" fill="#2ea043"/>
<circle cx="22" cy="10" r="3" fill="#2ea043" opacity="0.8"/>
<path d="M22 18l4 4-4 4" stroke="#2ea043" stroke-width="2" fill="none" opacity="0.6"/>
</svg>